<svg xmlns="http://www.w3.org/2000/svg" width="270" height="120" fill="none"><defs><clipPath id="a"><path fill="#fff" fill-opacity="0" d="M100 25h70v70h-70z"/></clipPath></defs><rect width="270" height="120" fill="#F5F4FA" rx="4"/><path fill="none" d="M100 25h70v70h-70z"/><g clip-path="url(#a)"><path fill="#2196F3" d="M169.94 34.9c-.13-.42-.5-.73-.94-.8l-4.18-.6-1.87-3.8c-.39-.79-1.7-.79-2.09 0L159 33.5l-4.18.6a1.17 1.17 0 0 0-.65 2l3.03 2.94-.72 4.16a1.17 1.17 0 0 0 1.7 1.23l3.74-1.96 3.73 1.96a1.17 1.17 0 0 0 1.7-1.23l-.72-4.16 3.03-2.95c.31-.3.43-.77.3-1.2Zm-5.38 2.9c-.28.27-.4.65-.34 1.03l.42 2.44-2.19-1.15a1.17 1.17 0 0 0-1.09 0l-2.19 1.15.42-2.44c.07-.38-.06-.76-.33-1.03l-1.78-1.73 2.45-.35c.38-.06.71-.3.88-.64l1.1-2.22 1.09 2.22c.17.34.5.58.88.64l2.44.35-1.76 1.73Z"/><path fill="#2196F3" fill-rule="evenodd" d="M154.83 69.9h2.34v2.33h-2.34v-2.34ZM154.83 74.56h2.34v2.33h-2.34v-2.33ZM157.17 72.23h2.33v2.33h-2.33v-2.33ZM152.5 72.23h2.33v2.33h-2.33v-2.33ZM146.67 82.73H149v2.33h-2.33v-2.33ZM146.67 87.4H149v2.33h-2.33v-2.34ZM149 85.06h2.33v2.33H149v-2.33ZM144.33 85.06h2.34v2.33h-2.34v-2.33ZM132.67 78.06H135v2.33h-2.33v-2.33ZM132.67 82.73H135v2.33h-2.33v-2.33ZM135 80.4h2.33v2.33H135v-2.34ZM130.33 80.4h2.34v2.33h-2.34v-2.34ZM110.5 38.4h2.33v2.33h-2.33v-2.34ZM110.5 43.06h2.33v2.33h-2.33v-2.33ZM112.83 40.73h2.34v2.33h-2.34v-2.33ZM108.17 40.73h2.33v2.33h-2.33v-2.33Z"/><path fill="#212121" d="M154.06 55.97a3.88 3.88 0 0 0-2.6-1.54 3.89 3.89 0 0 0-2.93.77l-2.74 2.1-4.15 3.1-2.97-1.18c5.3-2.38 9-7.67 9-13.83 0-8.36-6.83-15.16-15.23-15.16s-15.22 6.8-15.22 15.16c0 3.04.9 5.85 2.45 8.23l-6.05-.06h-.01l-.05.01c-.12 0-.23.03-.34.07l-.08.03-.05.01-7.07 3.5-4.14 1.99a3.9 3.9 0 0 0 3.88 6.76l3.03-1.61 4.95-2.56 2.97-.02-11.9 11.85-2.93 2.92a3.61 3.61 0 0 0 0 5.15 3.65 3.65 0 0 0 5.16 0l2.87-2.86 3.81-2.84 1.97 1.96-3.85 3.84-2.93 2.91a3.6 3.6 0 0 0 0 5.16 3.65 3.65 0 0 0 5.16 0L117 86.9l4.68-4.66 2.21-2.2.05-.04 11.3-12.38 7.59 1.09a1.12 1.12 0 0 0 .57-.08l.11-.05c.04-.02.09-.03.13-.06l7.03-4.66.06-.07.09-.05 2.78-2.61a3.9 3.9 0 0 0 .46-5.17Zm-49.4 7.9c-.38.2-.8.25-1.22.12a1.56 1.56 0 0 1-.47-2.76l2.88-1.38.69 2.02.29.85-2.17 1.15Zm7.65-4-3.39 1.75-.56-1.63-.4-1.17 4.44-2.2-.09 3.25Zm33.03-14.48c0 2.01-.48 3.9-1.31 5.6l-9.15-4.15a4.07 4.07 0 0 0-1.72-3.04l3.2-10.63c5.2 1.65 8.98 6.5 8.98 12.22Zm-25.79 0a12.88 12.88 0 0 1 14.53-12.72l-3.14 10.4-.12-.01a4.1 4.1 0 0 0-4.1 4.08 4.1 4.1 0 0 0 7.64 2.02L142.8 53a12.89 12.89 0 0 1-23.26-7.6Zm13.03 1.75a1.76 1.76 0 0 1-3.52 0 1.76 1.76 0 0 1 3.52 0ZM105.4 80.01c-.52.51-1.35.5-1.87 0a1.3 1.3 0 0 1 0-1.85l2.1-2.1 1.87 1.86-2.1 2.09Zm7.03 8.16c-.52.52-1.35.52-1.87 0a1.3 1.3 0 0 1 0-1.84l2.1-2.1.89.88.98.97-2.1 2.1Zm7.62-7.58-3.87 3.85-.88-.88-.98-.98 3.86-3.83c.09-.1.14-.2.2-.3l.05-.1c.04-.08.05-.18.06-.27 0-.06.03-.1.03-.16 0-.08-.03-.16-.04-.23l-.04-.21c-.05-.11-.12-.2-.2-.3l-.06-.09-3.52-3.5c-.03-.04-.08-.05-.12-.08-.07-.05-.13-.1-.2-.13a1.11 1.11 0 0 0-.2-.07 1.12 1.12 0 0 0-.22-.04h-.21l-.23.05c-.07.02-.14.06-.2.1-.05.02-.1.03-.14.06l-3.88 2.9-1.97-1.97 5.25-5.22 9.54 9.39-2.03 2Zm14.91-15.35h-.1a1.15 1.15 0 0 0-.83.3l-.09.07-10.28 11.25-9.47-9.3 6.2-6.17a1.17 1.17 0 0 0-.83-2l-4.85.03.06-3.52 6.79.06a15.2 15.2 0 0 0 13.7 4.33c.08.07.17.14.28.19l5.27 2.1.33 1.66.4 1.93-6.58-.93Zm8.84.39-.68-3.41 3.16-2.36.83 1.1 1.24 1.65-4.55 3.02Zm8.22-6.2-1.84 1.72-2.03-2.7 1.81-1.4a1.6 1.6 0 0 1 1.2-.31 1.57 1.57 0 0 1 .85 2.7Z"/><path fill="#212121" d="m129.75 65.57-4.68-4.67a1.17 1.17 0 0 0-1.65 0l-4.69 4.67a1.17 1.17 0 0 0 0 1.65l4.7 4.67a1.16 1.16 0 0 0 1.64 0l4.69-4.67a1.17 1.17 0 0 0 0-1.65Zm-5.5 3.84-3.04-3.02 3.03-3.02 3.04 3.02-3.04 3.02ZM137.55 36.1l-.57 2.26c.16.04 3.8.99 3.8 4.7h2.34c0-4.41-3.65-6.49-5.57-6.97Z"/><path fill="#212121" fill-rule="evenodd" d="M140.78 45.4h2.34v2.33h-2.34v-2.34Z"/></g></svg>