<svg xmlns="http://www.w3.org/2000/svg" width="170" height="92" fill="none"><defs><clipPath id="a"><path fill="#fff" fill-opacity="0" d="M32 16h106v60H32z"/></clipPath></defs><rect width="169" height="91" x=".5" y=".5" stroke="#AFB1B8" rx="4"/><path fill="none" d="M32 16h106v60H32z"/><g fill="#AFB1B8" clip-path="url(#a)"><path d="M58.75 60.73c.25.28.38.62.37.98a1.5 1.5 0 0 1-.57 1.23c-.47.33-1.06.49-1.65.45H54V57.2h2.84a2.6 2.6 0 0 1 1.57.41c.19.14.33.32.43.52.1.2.14.42.13.64.01.34-.1.68-.33.95-.22.24-.53.41-.87.48.39.07.73.25.98.53Zm-3.4-.93h1.21c.28.01.55-.06.77-.21.1-.08.17-.17.21-.27a.66.66 0 0 0 .06-.34.7.7 0 0 0-.06-.32.69.69 0 0 0-.2-.28 1.24 1.24 0 0 0-.8-.21h-1.19v1.63Zm2.1 2.37a.7.7 0 0 0 .29-.63.61.61 0 0 0-.07-.35.67.67 0 0 0-.22-.28 1.28 1.28 0 0 0-.83-.23h-1.27v1.7h1.29c.29.02.58-.06.81-.21ZM64.57 63.39l-1.59-2.42h-.59v2.42h-1.36V57.2h2.57c.65-.04 1.3.15 1.8.53a1.87 1.87 0 0 1 .19 2.56c-.32.33-.75.55-1.23.63l1.69 2.47h-1.48Zm-2.18-3.26h1.11c.78 0 1.16-.31 1.16-.94a.78.78 0 0 0-.06-.37 1 1 0 0 0-.22-.33 1.36 1.36 0 0 0-.88-.25h-1.12l.01 1.89ZM72.01 62.15h-2.72l-.48 1.24h-1.42l2.49-6.12h1.54l2.48 6.12h-1.43l-.46-1.24Zm-.37-.94-.99-2.62-.99 2.62h1.98ZM81.32 63.39h-1.35l-3.03-4.21v4.21h-1.35V57.2h1.35l3.03 4.23V57.2h1.35v6.19ZM89.03 61.91A2.8 2.8 0 0 1 87.81 63c-.59.27-1.25.41-1.9.39H83.5V57.2h2.41c.65-.02 1.31.12 1.9.38.51.24.94.62 1.22 1.08a3.33 3.33 0 0 1 0 3.25Zm-1.55-.15a2.13 2.13 0 0 0 0-2.95 2.41 2.41 0 0 0-1.69-.53h-.94v4.01h.94c.62.03 1.23-.16 1.69-.53ZM72.85 22.76s17.44 6.03 17.07 14.75v14.76s-17.43-6.03-17.06-14.76l-.01-14.75ZM105.46 48.81a25.36 25.36 0 0 1 11.08-3.74v-4.61a22.3 22.3 0 0 0-11.08 8.35Z"/><path d="M103.48 50.2a23.07 23.07 0 0 1 13.06-10.71V26.18S91.7 34.77 92.23 47.19V68.2s1.1-.39 2.84-1.11c0-.67 0-1.35.08-2.03a21.3 21.3 0 0 1 8.33-14.86Z"/><path d="M101.12 58.01c.13-1.46.42-2.9.86-4.3a19.42 19.42 0 0 0-5.26 12.69c1.42-.62 3.06-1.4 4.78-2.31-.44-2-.57-4.05-.38-6.08ZM102.1 58.08c-.16 1.84-.06 3.7.31 5.51 6.79-3.72 14.41-9.46 14.12-16.4v-.61c-4.85.5-9.39 2.44-12.91 5.53a19.16 19.16 0 0 0-1.52 5.97Z"/></g></svg>