<svg xmlns="http://www.w3.org/2000/svg" width="170" height="92" fill="none"><defs><clipPath id="a"><path fill="#fff" fill-opacity="0" d="M32 16h106v60H32z"/></clipPath></defs><rect width="169" height="91" x=".5" y=".5" stroke="#AFB1B8" rx="4"/><g fill="#AFB1B8" clip-path="url(#a)"><path fill-rule="evenodd" d="M81.98 21.93h.13c.26 0 .53.03.8.05 1.2.09 2.38.27 3.54.54v-2.87a21.1 21.1 0 0 0-5.13-.65h-.43c-2.47 0-4.94.33-7.33.95a29.73 29.73 0 0 0-7.79 3.16v28.4a32.36 32.36 0 0 1 13.65-3.85h.08c.35-.02.7-.03 1.07-.03v-2.9a34.33 34.33 0 0 0-10.91 1.9l-1.01.34V24.83l.43-.2a28.28 28.28 0 0 1 11.81-2.72h.46l.63.02Zm5.17 2.93a31.47 31.47 0 0 0 9.67-.92 31.77 31.77 0 0 0 7.42-2.89v27.89a29.8 29.8 0 0 1-7.79 3.17c-2.4.61-4.86.93-7.33.94a22.4 22.4 0 0 1-5.57-.66V24.32a22.97 22.97 0 0 0 3.6.54Zm14.2.22-1.02.34a34.26 34.26 0 0 1-13.07 1.86l-.8-.05V50l.69.06a26.88 26.88 0 0 0 8.6-.77 27.75 27.75 0 0 0 5.16-1.87l.44-.2V25.08Z" clip-rule="evenodd"/><path d="M67.73 61.21a1.5 1.5 0 0 0-1.12-.46c-.23 0-.45.04-.65.12a1.47 1.47 0 0 0-.84.85c-.08.2-.11.41-.11.62v3.8a1.55 1.55 0 0 0 .53 1.28 1.77 1.77 0 0 0 1.7.22 1.54 1.54 0 0 0 .83-.86c.08-.19.13-.4.13-.6v-.43h-1v.34a.78.78 0 0 1-.05.34.8.8 0 0 1-.15.21.53.53 0 0 1-.21.11.65.65 0 0 1-.2.04.57.57 0 0 1-.26-.04.44.44 0 0 1-.21-.17.9.9 0 0 1-.13-.51v-3.53c-.01-.2.03-.39.12-.57a.54.54 0 0 1 .49-.23c.08 0 .17.02.24.05.08.04.15.1.2.17.11.14.17.32.16.5v.33h.98v-.38c.01-.23-.03-.46-.12-.67a1.4 1.4 0 0 0-.33-.53ZM73.62 61.16a1.75 1.75 0 0 0-1.72-.31c-.19.07-.37.18-.52.31-.16.15-.3.33-.38.54-.1.23-.15.48-.15.73v3.64a1.56 1.56 0 0 0 .53 1.25c.15.14.33.25.52.32a1.73 1.73 0 0 0 1.19 0 1.6 1.6 0 0 0 1.05-1.57v-3.64a1.67 1.67 0 0 0-.52-1.27Zm-.46 4.91c.01.1 0 .19-.04.29a.63.63 0 0 1-.16.24.7.7 0 0 1-.46.17.73.73 0 0 1-.47-.17.78.78 0 0 1-.16-.24.73.73 0 0 1-.04-.29v-3.64a.73.73 0 0 1 .04-.29.78.78 0 0 1 .16-.24c.13-.11.3-.17.47-.17a.7.7 0 0 1 .46.17c.07.07.13.15.16.24.04.1.05.19.04.29v3.64ZM81.36 67.69v-6.88h-.95l-1.25 3.64h-.02l-1.26-3.64h-.95v6.88h.99V63.5h.01l.97 2.97h.49l.97-2.97h.02v4.19h.98ZM86.95 61.29a1.4 1.4 0 0 0-.55-.38 2.16 2.16 0 0 0-.72-.1h-1.46v6.88h.98V65h.51c.3.02.61-.05.88-.18a1.63 1.63 0 0 0 .77-1.13 5.1 5.1 0 0 0-.05-1.77 1.42 1.42 0 0 0-.36-.63Zm-.5 2.1c-.01.12-.04.25-.09.36a.6.6 0 0 1-.26.24c-.14.06-.3.09-.46.09h-.45v-2.35h.51c.15 0 .3.03.44.09.1.06.18.15.23.25.05.13.08.26.09.39V63.39h-.01ZM91.6 60.81h-.8l-1.52 6.88h.98l.29-1.48h1.34l.29 1.48h.98l-1.56-6.88Zm-.9 4.47.48-2.5h.02l.48 2.5h-.98ZM97.94 64.96h-.01l-1.49-4.15h-.94v6.88h.98v-4.14h.02l1.5 4.14h.93v-6.88h-.99v4.15ZM103.94 60.81l-.79 2.73h-.02l-.79-2.73h-1.04l1.35 3.97v2.91h.98v-2.91l1.35-3.97h-1.04ZM65 69.64h.47v1.33h.32v-1.33h.47v-.27H65v.27ZM68.97 69.37l-.62 1.6h.34l.14-.37h.63l.14.37h.35l-.64-1.6h-.34Zm-.05.96.22-.59.22.59h-.44ZM72.9 70.38h.37v.2a.6.6 0 0 1-.38.14.43.43 0 0 1-.19-.04.39.39 0 0 1-.15-.11.79.79 0 0 1-.12-.42c0-.36.16-.54.47-.54a.4.4 0 0 1 .22.06c.07.05.12.12.14.2l.31-.06c-.06-.32-.29-.47-.67-.47a.8.8 0 0 0-.56.2.73.73 0 0 0-.23.62c-.01.22.06.43.2.6.08.08.17.14.28.18.1.04.22.06.33.05.25.01.49-.08.68-.25v-.63h-.7v.27ZM76.92 69.37h-.33v1.6h1.12v-.28h-.79v-1.32Z"/><path fill-rule="evenodd" d="M79.99 69.37h.32v1.6h-.32v-1.6Z"/><path d="m83.63 70.44-.65-1.07h-.32v1.6h.3v-1.05l.65 1.05h.32v-1.6h-.3v1.07ZM86.63 70.26h.8v-.27h-.8v-.35h.86v-.27h-1.18v1.6h1.21v-.28h-.89v-.43ZM93.91 70h-.63v-.63h-.32v1.6h.32v-.7h.63v.7h.32v-1.6h-.32V70ZM96.93 70.26h.79v-.27h-.79v-.35h.86v-.27H96.6v1.6h1.22v-.28h-.89v-.43ZM101.02 70.26c.28-.04.42-.19.42-.44a.34.34 0 0 0-.03-.2.4.4 0 0 0-.13-.16.92.92 0 0 0-.47-.09h-.67v1.6h.32v-.67h.06c.07-.01.14.01.2.03.05.03.09.07.11.12l.35.51h.39l-.2-.31c-.08-.16-.2-.29-.35-.39Zm-.33-.22h-.23v-.4h.25c.11-.01.22 0 .33.04l.05.07.02.09c0 .04-.01.07-.03.09a.13.13 0 0 1-.06.07c-.1.04-.21.05-.33.04ZM104.11 70.26h.79v-.27h-.79v-.35h.86v-.27h-1.19v1.6H105v-.28h-.89v-.43Z"/></g></svg>