<svg width="170.000000" height="92.000000" viewBox="0 0 170 92" fill="none" xmlns="http://www.w3.org/2000/svg" xmlns:xlink="http://www.w3.org/1999/xlink">
	<desc>
			Created with Pixso.
	</desc>
	<defs>
		<clipPath id="clip11_3779">
			<rect id="Logo" width="106.000000" height="60.000000" transform="translate(32.000000 16.000000)" fill="white" fill-opacity="0"/>
		</clipPath>
	</defs>
	<rect id="Rectangle 9" x="0.500000" y="0.500000" rx="4.000000" width="169.000000" height="91.000000" stroke="#AFB1B8" stroke-opacity="1.000000" stroke-width="1.000000"/>
	<rect id="Logo" width="106.000000" height="60.000000" transform="translate(32.000000 16.000000)" fill="#2196F3" fill-opacity="0"/>
	<g clip-path="url(#clip11_3779)">
		<path id="Vector" d="M56.14 37.1L56.14 37.1C58.54 37.1 60.48 38.83 60.48 40.96L60.48 40.96C60.48 43.09 58.54 44.82 56.14 44.82L56.14 44.82C53.74 44.82 51.8 43.09 51.8 40.96L51.8 40.96C51.8 38.83 53.74 37.1 56.14 37.1Z" fill="#AFB1B8" fill-opacity="1.000000" fill-rule="evenodd"/>
		<path id="Vector" d="M88.19 35.86C88.18 32.9 86.86 30.07 84.5 27.97C82.15 25.88 78.96 24.7 75.62 24.7L75.62 24.7C72.29 24.7 69.1 25.88 66.74 27.97C64.39 30.07 63.06 32.9 63.05 35.86L63.05 52.19C63.05 52.19 88.19 49.7 88.19 35.87L88.19 35.86Z" fill="#AFB1B8" fill-opacity="1.000000" fill-rule="nonzero"/>
		<path id="Vector" d="M43 57.54C43 59.6 43.92 61.58 45.56 63.03C47.2 64.49 49.42 65.31 51.74 65.32C54.06 65.31 56.28 64.49 57.91 63.04C59.55 61.58 60.48 59.61 60.48 57.55L60.48 46.19C60.48 46.19 43 47.92 43 57.54ZM51.74 59.58C51.29 59.58 50.84 59.46 50.47 59.24C50.09 59.01 49.8 58.7 49.62 58.32C49.45 57.95 49.41 57.54 49.49 57.15C49.58 56.75 49.8 56.39 50.12 56.11C50.44 55.82 50.85 55.63 51.29 55.55C51.74 55.47 52.2 55.51 52.62 55.66C53.03 55.82 53.39 56.08 53.64 56.41C53.89 56.75 54.03 57.14 54.03 57.54C54.03 57.81 53.97 58.08 53.86 58.33C53.74 58.57 53.57 58.8 53.36 58.99C53.15 59.18 52.9 59.33 52.62 59.43C52.34 59.53 52.04 59.59 51.74 59.59L51.74 59.58Z" fill="#AFB1B8" fill-opacity="1.000000" fill-rule="nonzero"/>
		<path id="FOSTER PETERS" d="M73.41 59.27Q73.64 58.8 73.64 58.17L73.64 57.98Q73.64 57.35 73.41 56.87Q73.24 56.51 72.96 56.27Q72.87 56.2 72.77 56.13Q72.68 56.08 72.59 56.04Q72.24 55.88 71.82 55.88Q71.4 55.88 71.05 56.04Q70.96 56.08 70.87 56.13Q70.77 56.2 70.68 56.27Q70.4 56.51 70.23 56.87Q70 57.35 70 57.98L70 58.19Q70.01 58.8 70.24 59.28Q70.4 59.62 70.67 59.85Q70.77 59.94 70.88 60.01Q70.97 60.06 71.07 60.11Q71.42 60.26 71.83 60.26Q72.26 60.26 72.61 60.09Q72.7 60.05 72.78 60Q72.89 59.93 73 59.84Q73.25 59.61 73.41 59.27ZM76.41 58.81Q76.49 58.92 76.49 59.08Q76.49 59.21 76.43 59.31Q76.39 59.38 76.31 59.44Q76.14 59.57 75.82 59.57Q75.33 59.57 75.12 59.32Q74.98 59.15 74.98 58.86L74.1 58.86Q74.1 59.17 74.22 59.42Q74.26 59.51 74.31 59.59Q74.31 59.59 74.32 59.6Q74.53 59.9 74.93 60.08Q75.33 60.26 75.82 60.26Q76.53 60.26 76.95 59.95Q77.13 59.81 77.23 59.63Q77.37 59.39 77.37 59.08Q77.37 58.8 77.26 58.57Q77.18 58.39 77.03 58.25Q76.68 57.91 75.93 57.69Q75.53 57.56 75.32 57.42Q75.17 57.32 75.13 57.19Q75.11 57.13 75.11 57.07Q75.11 56.96 75.15 56.88Q75.2 56.78 75.29 56.71Q75.47 56.58 75.79 56.58Q76.12 56.58 76.31 56.74Q76.35 56.78 76.39 56.83Q76.49 56.98 76.49 57.2L77.37 57.2Q77.37 56.93 77.28 56.71Q77.23 56.61 77.17 56.51Q77.13 56.45 77.08 56.39Q76.9 56.17 76.62 56.04Q76.26 55.88 75.8 55.88Q75.35 55.88 74.98 56.03Q74.62 56.18 74.42 56.45Q74.34 56.56 74.3 56.69Q74.23 56.87 74.23 57.07Q74.23 57.27 74.29 57.45Q74.45 57.85 74.96 58.13Q75.22 58.27 75.68 58.42Q76.14 58.57 76.31 58.7Q76.37 58.75 76.41 58.81ZM110.73 58.81Q110.81 58.92 110.81 59.08Q110.81 59.21 110.75 59.31Q110.71 59.38 110.63 59.44Q110.46 59.57 110.14 59.57Q109.65 59.57 109.44 59.32Q109.3 59.15 109.3 58.86L108.42 58.86Q108.42 59.17 108.53 59.42Q108.57 59.51 108.63 59.59Q108.63 59.59 108.64 59.6Q108.85 59.9 109.25 60.08Q109.65 60.26 110.14 60.26Q110.85 60.26 111.27 59.95Q111.45 59.81 111.55 59.63Q111.69 59.39 111.69 59.08Q111.69 58.8 111.58 58.57Q111.49 58.39 111.35 58.25Q111 57.91 110.25 57.69Q109.85 57.56 109.64 57.42Q109.49 57.32 109.44 57.19Q109.43 57.13 109.43 57.07Q109.43 56.96 109.47 56.88Q109.51 56.78 109.61 56.71Q109.78 56.58 110.11 56.58Q110.44 56.58 110.63 56.74Q110.67 56.78 110.71 56.83Q110.81 56.98 110.81 57.2L111.69 57.2Q111.69 56.93 111.6 56.71Q111.55 56.61 111.49 56.51Q111.45 56.45 111.4 56.39Q111.22 56.17 110.94 56.04Q110.58 55.88 110.12 55.88Q109.67 55.88 109.3 56.03Q108.94 56.18 108.74 56.45Q108.66 56.56 108.62 56.69Q108.55 56.87 108.55 57.07Q108.55 57.27 108.61 57.45Q108.77 57.85 109.27 58.13Q109.54 58.27 110 58.42Q110.46 58.57 110.63 58.7Q110.69 58.75 110.73 58.81ZM67.73 58.46L69.41 58.46L69.41 57.75L67.73 57.75L67.73 56.65L69.62 56.65L69.62 55.94L66.85 55.94L66.85 60.2L67.73 60.2L67.73 58.46ZM79.87 56.65L81.18 56.65L81.18 55.94L77.7 55.94L77.7 56.65L78.99 56.65L78.99 60.2L79.87 60.2L79.87 56.65ZM82.56 58.35L84.24 58.35L84.24 57.66L82.56 57.66L82.56 56.65L84.53 56.65L84.53 55.94L81.68 55.94L81.68 60.2L84.54 60.2L84.54 59.5L82.56 59.5L82.56 58.35ZM85.93 58.64L86.63 58.64L87.43 60.2L88.37 60.2L88.37 60.16L87.45 58.42Q87.83 58.25 88.02 57.95Q88.21 57.66 88.21 57.23Q88.21 56.8 88.01 56.5Q87.93 56.38 87.8 56.27Q87.39 55.94 86.64 55.94L85.05 55.94L85.05 60.2L85.93 60.2L85.93 58.64ZM91.25 60.2L91.25 58.7L92.02 58.7Q92.78 58.7 93.21 58.34Q93.36 58.21 93.46 58.05Q93.64 57.76 93.64 57.35Q93.64 57.02 93.52 56.75Q93.49 56.68 93.45 56.61Q93.39 56.52 93.31 56.43Q93.14 56.24 92.88 56.11Q92.52 55.94 92.04 55.94L90.37 55.94L90.37 60.2L91.25 60.2ZM95.12 58.35L96.81 58.35L96.81 57.66L95.12 57.66L95.12 56.65L97.1 56.65L97.1 55.94L94.24 55.94L94.24 60.2L97.1 60.2L97.1 59.5L95.12 59.5L95.12 58.35ZM99.58 56.65L100.89 56.65L100.89 55.94L97.41 55.94L97.41 56.65L98.7 56.65L98.7 60.2L99.58 60.2L99.58 56.65ZM102.27 58.35L103.96 58.35L103.96 57.66L102.27 57.66L102.27 56.65L104.24 56.65L104.24 55.94L101.39 55.94L101.39 60.2L104.25 60.2L104.25 59.5L102.27 59.5L102.27 58.35ZM105.64 58.64L106.34 58.64L107.14 60.2L108.09 60.2L108.09 60.16L107.17 58.42Q107.55 58.25 107.74 57.95Q107.93 57.66 107.93 57.23Q107.93 56.8 107.73 56.5Q107.64 56.38 107.52 56.27Q107.11 55.94 106.35 55.94L104.77 55.94L104.77 60.2L105.64 60.2L105.64 58.64ZM72.51 56.95Q72.75 57.3 72.75 57.97L72.75 58.18Q72.74 58.85 72.51 59.19Q72.4 59.35 72.26 59.43Q72.07 59.54 71.83 59.54Q71.58 59.54 71.4 59.43Q71.24 59.34 71.14 59.18Q70.9 58.82 70.9 58.17L70.9 57.96Q70.9 57.29 71.14 56.95Q71.24 56.8 71.39 56.71Q71.57 56.6 71.82 56.6Q72.07 56.6 72.25 56.71Q72.4 56.8 72.51 56.95ZM86.64 57.93L85.93 57.93L85.93 56.65L86.64 56.65Q86.99 56.65 87.16 56.82Q87.19 56.85 87.21 56.88Q87.33 57.04 87.33 57.3Q87.33 57.52 87.23 57.67Q87.19 57.72 87.15 57.76Q87.15 57.76 87.14 57.77Q86.96 57.93 86.64 57.93ZM92.04 57.99L91.25 57.99L91.25 56.65L92.06 56.65Q92.32 56.65 92.49 56.78Q92.53 56.81 92.57 56.85Q92.61 56.89 92.64 56.94Q92.75 57.11 92.75 57.35Q92.75 57.6 92.64 57.75Q92.61 57.79 92.57 57.82Q92.39 57.99 92.04 57.99ZM106.35 57.93L105.64 57.93L105.64 56.65L106.35 56.65Q106.71 56.65 106.88 56.82Q106.9 56.85 106.93 56.88Q107.05 57.04 107.05 57.3Q107.05 57.52 106.94 57.67Q106.91 57.72 106.87 57.76Q106.86 57.76 106.86 57.77Q106.68 57.93 106.35 57.93Z" fill="#AFB1B8" fill-opacity="1.000000" fill-rule="evenodd"/>
	</g>
</svg>
