<svg xmlns="http://www.w3.org/2000/svg" width="170" height="92" fill="none"><defs><clipPath id="a"><path fill="#fff" fill-opacity="0" d="M32 16h106v60H32z"/></clipPath></defs><rect width="169" height="91" x=".5" y=".5" stroke="#AFB1B8" rx="4"/><g clip-path="url(#a)"><path fill="#AFB1B8" fill-rule="evenodd" d="m70 23 7 6.63H64V61.8h34v-12.3l7 6.62V23H70Zm27.7 6.92v18.8l-19.88-18.8H97.7ZM91.51 57.1H69.38V35.46h1.57v20.18h20.57v1.47ZM79.87 67.95a.8.8 0 0 0-.13.45c0 .3.1.55.31.73.21.19.5.28.85.28q.4 0 .7-.16l.2-.12.2.23h.7l-.53-.61q.3-.42.3-1.08h-.5c0 .24-.06.45-.16.65l-.68-.81.24-.18c.17-.12.3-.24.37-.37a.79.79 0 0 0 .11-.4q0-.18-.06-.32T81.6 66a.9.9 0 0 0-.63-.23.95.95 0 0 0-.69.24.87.87 0 0 0-.25.66c0 .12.03.23.08.36.05.12.15.27.29.44a2.1 2.1 0 0 0-.53.5Zm6.75 1.14c.25-.2.39-.5.42-.88h-.61c-.03.25-.11.43-.23.54-.13.1-.3.16-.55.16a.69.69 0 0 1-.6-.3q-.21-.3-.21-.88v-.31c0-.38.07-.67.22-.86.14-.2.35-.3.62-.3.23 0 .4.06.52.17.12.11.2.3.23.55h.61a1.34 1.34 0 0 0-.41-.9 1.37 1.37 0 0 0-.95-.32c-.3 0-.55.07-.77.2-.22.15-.4.34-.51.6-.12.25-.18.55-.18.88v.34c0 .32.06.61.18.86s.28.44.5.57c.22.13.47.2.75.2.4 0 .73-.1.97-.32Zm3.63-.5c.12-.26.18-.56.18-.91v-.2c0-.35-.06-.65-.18-.91q-.14-.3-.38-.5l-.14-.1a1.42 1.42 0 0 0-.77-.21c-.29 0-.55.07-.77.21l-.12.08q-.25.2-.4.53c-.12.26-.19.57-.19.92v.2c0 .34.07.64.19.9s.3.46.52.6c.23.14.49.21.77.21.3 0 .55-.07.78-.2.22-.15.4-.35.51-.61Zm-15.64-2.78-.82 1.68-.82-1.68h-.68l1.2 2.24v1.31h.61v-1.3l1.2-2.25h-.7Zm1.03 3.55.28-.82h1.38l.3.82h.64l-1.35-3.55h-.55l-1.35 3.55h.65Zm5.2-2.2c-.17-.2-.25-.38-.25-.51 0-.12.03-.22.1-.3a.35.35 0 0 1 .27-.11c.11 0 .2.03.27.1.07.06.1.14.1.23 0 .14-.05.26-.15.35l-.07.06-.27.18Zm8.75-.57c.15.2.23.5.23.9v.19c0 .4-.08.7-.23.91a.72.72 0 0 1-.63.31.74.74 0 0 1-.63-.32 1.55 1.55 0 0 1-.23-.9v-.2c0-.39.08-.68.23-.9a.73.73 0 0 1 .63-.3c.27 0 .48.1.63.3Zm-12.98-.03.52 1.48H76.1l.51-1.48Zm4.86 2.18a.9.9 0 0 1-.56.2q-.21 0-.36-.1l-.06-.06a.53.53 0 0 1-.16-.4c0-.19.1-.36.3-.5l.07-.06.77.92Z" clip-rule="evenodd"/></g></svg>