<svg xmlns="http://www.w3.org/2000/svg" width="170" height="92" fill="none"><defs><clipPath id="a"><path fill="#fff" fill-opacity="0" d="M32 16h106v60H32z"/></clipPath></defs><rect width="169" height="91" x=".5" y=".5" stroke="#AFB1B8" rx="4"/><path fill="none" d="M32 16h106v60H32z"/><g fill="#AFB1B8" clip-path="url(#a)"><path d="M85.42 43.4a2.9 2.9 0 0 1-.6-1.99v-2.88c0-.88.2-1.55.6-2.01.4-.46 1.09-.69 2.06-.69.92 0 1.57.2 1.96.59.42.5.62 1.11.57 1.72v.68h-1.64v-.69c.01-.22-.01-.45-.05-.67a.64.64 0 0 0-.23-.4.93.93 0 0 0-.59-.15.98.98 0 0 0-.63.16.76.76 0 0 0-.27.44c-.05.24-.07.47-.07.71v3.5c-.02.34.05.68.21.99.09.1.2.18.33.23.13.05.28.07.43.06.21.01.41-.04.58-.16a.67.67 0 0 0 .24-.43c.04-.23.06-.46.05-.7V41h1.64v.65c.05.64-.15 1.28-.56 1.81-.38.43-1.02.65-1.97.65-.94 0-1.66-.23-2.06-.71ZM92.25 43.43c-.41-.45-.62-1.1-.62-1.97v-3.03c0-.85.21-1.5.62-1.94.42-.44 1.11-.66 2.08-.66s1.66.22 2.07.66c.41.44.63 1.09.63 1.94v3.03c0 .86-.22 1.52-.64 1.97-.42.45-1.1.68-2.06.68-.95 0-1.66-.23-2.08-.68Zm2.85-.72c.14-.29.21-.59.19-.9v-3.72c.02-.3-.04-.6-.19-.88a.78.78 0 0 0-.34-.24.88.88 0 0 0-.43-.05.87.87 0 0 0-.77.29c-.15.28-.22.58-.2.88v3.74c-.02.3.05.61.2.89.1.1.21.17.35.23.13.05.27.07.42.07.14 0 .29-.02.42-.07.13-.06.25-.13.35-.23v-.01ZM99 35.92h1.77l1.32 5.59 1.36-5.59h1.72l.18 8.08h-1.28l-.13-5.62-1.31 5.62h-1.02l-1.36-5.64-.13 5.64h-1.28l.16-8.08ZM107.33 35.92h2.75c1.58 0 2.38.76 2.38 2.29 0 1.47-.84 2.2-2.51 2.2h-.94V44h-1.69l.01-8.08Zm2.35 3.45c.16.02.33.01.5-.04.16-.04.31-.12.43-.21.2-.28.28-.6.25-.92 0-.24-.02-.49-.09-.73a.48.48 0 0 0-.12-.22.6.6 0 0 0-.22-.16c-.23-.1-.49-.15-.75-.13h-.66v2.41h.66ZM114.9 35.92h1.83L118.6 44h-1.58l-.37-1.87h-1.63l-.38 1.87h-1.61l1.87-8.08Zm1.56 5.28-.63-3.39-.64 3.39h1.27ZM120.11 35.92h1.19l2.28 4.61v-4.61h1.41V44h-1.13l-2.29-4.81V44h-1.46v-8.08ZM128.29 40.92l-1.89-4.99h1.59l1.16 3.2 1.08-3.2h1.56l-1.87 4.99V44h-1.63v-3.08ZM88.04 47.53v.42h-1.38v3.28h-.58v-3.28h-1.4v-.42h3.36ZM92.39 51.23h-.45a.28.28 0 0 1-.13-.03.28.28 0 0 1-.07-.09l-.4-.88h-1.92l-.41.88a.2.2 0 0 1-.06.1c-.03.03-.08.04-.12.04h-.45l1.7-3.71h.59l1.72 3.69Zm-2.82-1.37h1.61l-.68-1.51a4.96 4.96 0 0 1-.13-.35l-.06.2-.06.15-.68 1.51ZM95.32 50.87h.32l.27-.05.24-.06.23-.1v-.83H95.65l-.04-.03-.03-.03-.01-.03v-.29h1.32v1.42a2.21 2.21 0 0 1-.71.3c-.14.04-.29.06-.43.08l-.49.02a2.46 2.46 0 0 1-1.54-.52 1.79 1.79 0 0 1-.6-1.36c0-.26.05-.52.16-.77a1.82 1.82 0 0 1 1.12-.97c.29-.1.6-.14.91-.14l.47.03c.14.02.27.05.4.1.12.03.24.08.34.14.11.06.21.12.3.2l-.17.22a.12.12 0 0 1-.05.05c-.02.02-.05.02-.08.02l-.1-.02-.17-.09a.94.94 0 0 0-.23-.1 2.09 2.09 0 0 0-1.4-.01 1.3 1.3 0 0 0-.81.75c-.15.4-.15.83 0 1.23.07.18.19.34.34.47.14.13.31.23.49.29.22.07.45.09.68.08ZM100.73 50.81h1.86v.42h-2.43v-3.7h.59l-.02 3.28ZM104.52 51.23h-.58v-3.7h.58v3.7ZM106.68 47.54l.09.07 2.48 2.79v-2.89h.5v3.72h-.29c-.04 0-.08 0-.12-.02a.22.22 0 0 1-.09-.07l-2.48-2.79v2.88h-.49v-3.7h.3l.1.01ZM114.03 47.53v.4h-2.06v1.23h1.67v.39h-1.67v1.26h2.06v.41h-2.65v-3.69h2.65ZM53.16 24.65l25.79 6.32v22.16l-25.79-6.32V24.65Zm-1.66-1.89v25.13l29.1 7.13V29.9l-29.1-7.14Z"/><path d="M67.1 66.69 38 59.55V34.42l29.1 7.14v25.13Z"/><path d="m51.98 24.37 25.46 6.24-10.82 9.35-25.47-6.25 10.83-9.34Zm-.48-1.61L38 34.42l29.1 7.14L80.6 29.9l-29.1-7.14ZM68.74 65.27 80.6 55.03l-11.86-2.92v13.16Z"/></g></svg>