<svg xmlns="http://www.w3.org/2000/svg" width="170" height="92" fill="none"><defs><clipPath id="a"><path fill="#fff" fill-opacity="0" d="M32 16h106v60H32z"/></clipPath></defs><rect width="169" height="91" x=".5" y=".5" stroke="#AFB1B8" rx="4"/><path fill="none" d="M32 16h106v60H32z"/><g fill="#AFB1B8" clip-path="url(#a)"><path d="m68.4 65.1.05.01.04.02.21.21c-.17.17-.37.3-.61.39a2.53 2.53 0 0 1-1.69.01 1.72 1.72 0 0 1-1.15-1.69c0-.25.05-.51.15-.74.09-.22.24-.42.42-.58.19-.17.41-.29.66-.38.26-.09.55-.14.84-.13a2.06 2.06 0 0 1 1.37.45l-.19.23-.04.04-.08.01a.19.19 0 0 1-.07-.02l-.1-.06-.14-.08-.18-.07c-.08-.03-.17-.04-.25-.06-.11-.02-.22-.02-.32-.02-.21-.01-.42.03-.61.1a1.31 1.31 0 0 0-.89 1.31 1.42 1.42 0 0 0 .41 1.04 1.56 1.56 0 0 0 1.02.37l.33-.02c.18-.02.35-.07.5-.16.08-.04.15-.09.22-.15a.17.17 0 0 1 .1-.03ZM74.7 64.05a1.72 1.72 0 0 1-1.2 1.68c-.54.18-1.13.18-1.66 0a1.85 1.85 0 0 1-.64-.37 1.95 1.95 0 0 1-.42-.58 2 2 0 0 1 0-1.48c.1-.21.24-.41.42-.58.18-.16.4-.28.64-.36a2.62 2.62 0 0 1 1.66 0c.24.09.46.21.64.38.18.16.32.36.41.57.1.23.15.49.15.74Zm-.57 0a1.5 1.5 0 0 0-.4-1.04 1.42 1.42 0 0 0-.46-.28 1.9 1.9 0 0 0-1.2 0c-.18.07-.34.16-.47.28a1.2 1.2 0 0 0-.29.45c-.14.38-.14.8 0 1.18.06.16.16.32.29.44.13.12.29.22.47.28.38.13.81.13 1.2 0 .18-.06.33-.16.46-.28.13-.12.23-.28.29-.44.08-.19.11-.39.11-.59ZM79 64.67l.05.13.07-.13.07-.13 1.39-2.2c.03-.04.05-.06.08-.07l.11-.01h.42v3.58h-.49v-2.75a.24.24 0 0 1 0-.12l-1.4 2.23c-.02.04-.05.06-.09.08a.21.21 0 0 1-.12.03h-.07a.21.21 0 0 1-.12-.03c-.04-.02-.07-.04-.09-.08l-1.44-2.24v2.87h-.47v-3.57h.41l.12.01c.03.01.06.04.07.07l1.43 2.2.07.13ZM84.24 64.49v1.34h-.55v-3.57h1.22c.23-.01.46.02.68.08.18.04.34.12.48.22a1 1 0 0 1 .36.81.9.9 0 0 1-.1.45.9.9 0 0 1-.29.36c-.14.11-.31.19-.48.24-.22.06-.44.09-.66.08l-.66-.01Zm0-.38h.66c.14 0 .29-.02.42-.06a.9.9 0 0 0 .31-.15.69.69 0 0 0 .18-.24.6.6 0 0 0 .07-.3c0-.1-.01-.2-.06-.29a.61.61 0 0 0-.19-.24 1.24 1.24 0 0 0-.73-.2h-.66v1.48ZM91.57 65.84h-.43c-.05 0-.09-.01-.12-.04a.18.18 0 0 1-.07-.08l-.37-.86h-1.87l-.38.86-.07.08c-.03.03-.08.04-.12.04h-.43l1.63-3.58h.57l1.66 3.58Zm-2.7-1.33h1.54l-.65-1.46a2.19 2.19 0 0 1-.12-.33l-.07.18-.06.15-.64 1.46ZM93.92 62.27l.09.07 2.38 2.7v-2.78h.49v3.58h-.27l-.12-.02a.27.27 0 0 1-.08-.07l-2.39-2.7v2.79h-.48v-3.58h.29l.09.01ZM100.9 64.41v1.43h-.55v-1.43l-1.5-2.15h.48c.05 0 .09.01.12.03l.07.08.95 1.39.1.17.06.15.07-.16.1-.16.93-1.4a.5.5 0 0 1 .07-.08.21.21 0 0 1 .12-.03h.49l-1.51 2.16ZM78.73 56.25l.72.07a19.88 19.88 0 0 0 8.94-6.73 16.05 16.05 0 0 0 3.18-9.9l-4.05-3.53c.82 3.73.44 7.58-1.12 11.13a20.96 20.96 0 0 1-7.67 8.96Z"/><path d="m77.28 56.09.11.02a20.38 20.38 0 0 0 8.1-9.23 17.32 17.32 0 0 0 .75-11.59l-5.77-5.02a21.61 21.61 0 0 1 2.71 13.31 22.66 22.66 0 0 1-5.9 12.51ZM96.86 43.82a17.99 17.99 0 0 1-6.79 9.89c-1 .76-2.08 1.43-3.23 2.02a20.15 20.15 0 0 0 7.51-3.69 16.6 16.6 0 0 0 4.85-6.19l-2.34-2.03Z"/><path d="m95.94 43.26-3.33-2.9a16.72 16.72 0 0 1-3.13 9.35 20.43 20.43 0 0 1-8.16 6.67h.02c.74 0 1.49-.04 2.23-.12a20.58 20.58 0 0 0 8.07-5.15 16.9 16.9 0 0 0 4.3-7.85ZM77.76 28.16l-3.98-3.46a18.72 18.72 0 0 0-8.77 6.02 15.06 15.06 0 0 0-3.34 9.27 15.2 15.2 0 0 0 4.03 10.09 19.44 19.44 0 0 0 10.32 5.82 21.88 21.88 0 0 0 6.1-13.63 21.24 21.24 0 0 0-4.36-14.11ZM105.14 42.72a15.43 15.43 0 0 0-5.55-11.57 20.48 20.48 0 0 0-13.32-4.82c-2.31 0-4.6.37-6.75 1.1l24.36 21.16a14.45 14.45 0 0 0 1.26-5.87Z"/></g></svg>