<svg xmlns="http://www.w3.org/2000/svg" width="270" height="120" fill="none"><defs><clipPath id="a"><path fill="#fff" fill-opacity="0" d="M100 25h70v70h-70z"/></clipPath></defs><rect width="270" height="120" fill="#F5F4FA" rx="4"/><path fill="none" d="M100 25h70v70h-70z"/><g clip-path="url(#a)"><path fill="#2196F3" d="M132.65 57.74h2.33v10.49h-2.33v-10.5ZM141.98 62.4h2.33v5.83h-2.33V62.4ZM123.32 65.9h2.33v2.33h-2.33V65.9ZM116.33 64.73h2.33v3.5h-2.33v-3.5Z"/><path fill="#212121" d="M103.5 86.89h55.97a3.5 3.5 0 0 0 3.5-3.5v-4.67a3.5 3.5 0 0 0-3.5-3.5h-1.17V46.16l6.63-6.28a3.52 3.52 0 1 0-1.64-1.67l-4.99 4.73v-2.69a3.5 3.5 0 0 0-3.5-3.5h-46.64a3.5 3.5 0 0 0-3.5 3.5v34.99h-1.16a3.5 3.5 0 0 0-3.5 3.5v4.66a3.5 3.5 0 0 0 3.5 3.5Zm62.97-51.31a1.17 1.17 0 1 1 0 2.33 1.17 1.17 0 0 1 0-2.33ZM107 40.24c0-.64.52-1.16 1.16-1.16h46.65c.64 0 1.16.52 1.16 1.16v4.9l-2.33 2.22v-4.78c0-.65-.52-1.17-1.17-1.17H110.5c-.65 0-1.17.52-1.17 1.17v29.15c0 .64.52 1.16 1.17 1.16h41.97c.65 0 1.17-.52 1.17-1.16V50.57l2.33-2.21v26.87H107V40.24Zm10.5 15.16a3.5 3.5 0 1 0 2.41 6.01l4.06 2.04c.47.23 1.04.12 1.39-.27l8.61-9.7 8.47 6.35c.46.34 1.1.3 1.5-.08l7.37-6.98v17.8h-39.65V43.73h39.65v5.82l-8.25 7.81-8.55-6.4a1.17 1.17 0 0 0-1.56.16l-8.74 9.83-3.27-1.64c.03-.14.04-.28.05-.42a3.5 3.5 0 0 0-3.5-3.5Zm1.16 3.5a1.17 1.17 0 1 1-2.34 0 1.17 1.17 0 0 1 2.34 0Zm7 18.66h11.65v1.16c0 .65-.52 1.17-1.16 1.17h-9.33c-.64 0-1.17-.52-1.17-1.17v-1.16Zm-23.33 1.16c0-.64.52-1.16 1.17-1.16h19.82v1.16a3.5 3.5 0 0 0 3.5 3.5h9.33a3.5 3.5 0 0 0 3.5-3.5v-1.16h19.82c.64 0 1.16.52 1.16 1.16v4.67c0 .64-.52 1.16-1.16 1.16H103.5c-.65 0-1.17-.52-1.17-1.16v-4.67Z"/></g></svg>