<svg width="44.000000" height="44.000000" viewBox="0 0 44 44" fill="none" xmlns="http://www.w3.org/2000/svg" xmlns:xlink="http://www.w3.org/1999/xlink">
	<desc>
			Created with Pixso.
	</desc>
	<defs>
		<clipPath id="clip11_3002">
			<rect id="facebook 1" width="20.000000" height="20.000000" transform="translate(12.000000 12.000000)" fill="white" fill-opacity="0"/>
		</clipPath>
	</defs>
	<rect id="Ellipse" width="44.000000" height="44.000000" fill="#FFFFFF" fill-opacity="0"/>
	<path id="Ellipse" d="M44 22C44 28.07 41.53 33.57 37.55 37.55C33.57 41.53 28.07 44 22 44C15.92 44 10.42 41.53 6.44 37.55C2.46 33.57 0 28.07 0 22C0 15.92 2.46 10.42 6.44 6.44C10.42 2.46 15.92 0 22 0C28.07 0 33.57 2.46 37.55 6.44C41.53 10.42 44 15.92 44 22Z" fill="#FFFFFF" fill-opacity="0.100000" fill-rule="nonzero"/>
	<rect id="facebook 1" width="20.000000" height="20.000000" transform="translate(12.000000 12.000000)" fill="#FFFFFF" fill-opacity="0"/>
	<g clip-path="url(#clip11_3002)">
		<path id="Vector" d="M25.33 15.32L27.15 15.32L27.15 12.14C26.84 12.09 25.75 12 24.49 12C21.86 12 20.06 13.65 20.06 16.69L20.06 19.5L17.15 19.5L17.15 23.05L20.06 23.05L20.06 32L23.62 32L23.62 23.05L26.4 23.05L26.85 19.5L23.62 19.5L23.62 17.05C23.62 16.02 23.89 15.32 25.33 15.32Z" fill="#FFFFFF" fill-opacity="1.000000" fill-rule="nonzero"/>
	</g>
</svg>
