<svg width="44.000000" height="44.000000" viewBox="0 0 44 44" fill="none" xmlns="http://www.w3.org/2000/svg" xmlns:xlink="http://www.w3.org/1999/xlink">
	<desc>
			Created with Pixso.
	</desc>
	<defs>
		<clipPath id="clip11_3012">
			<rect id="instagram 2" width="20.000000" height="20.000000" transform="translate(12.000000 12.000000)" fill="white" fill-opacity="0"/>
		</clipPath>
	</defs>
	<rect id="Ellipse" width="44.000000" height="44.000000" fill="#FFFFFF" fill-opacity="0"/>
	<path id="Ellipse" d="M44 22C44 28.07 41.53 33.57 37.55 37.55C33.57 41.53 28.07 44 22 44C15.92 44 10.42 41.53 6.44 37.55C2.46 33.57 0 28.07 0 22C0 15.92 2.46 10.42 6.44 6.44C10.42 2.46 15.92 0 22 0C28.07 0 33.57 2.46 37.55 6.44C41.53 10.42 44 15.92 44 22Z" fill="#FFFFFF" fill-opacity="0.100000" fill-rule="nonzero"/>
	<rect id="instagram 2" width="20.000000" height="20.000000" transform="translate(12.000000 12.000000)" fill="#FFFFFF" fill-opacity="0"/>
	<g clip-path="url(#clip11_3012)">
		<path id="Vector" d="M31.98 17.87C31.93 16.81 31.76 16.08 31.51 15.45C31.26 14.78 30.87 14.18 30.35 13.68C29.85 13.17 29.25 12.77 28.58 12.52C27.95 12.28 27.22 12.1 26.16 12.06C25.09 12.01 24.75 12 22.03 12C19.32 12 18.98 12.01 17.91 12.05C16.85 12.1 16.12 12.27 15.48 12.52C14.81 12.77 14.21 13.16 13.71 13.68C13.2 14.18 12.81 14.78 12.56 15.45C12.31 16.08 12.14 16.81 12.09 17.87C12.04 18.94 12.03 19.28 12.03 22C12.03 24.71 12.04 25.05 12.09 26.12C12.14 27.18 12.31 27.91 12.55 28.55C12.81 29.22 13.2 29.82 13.71 30.32C14.21 30.83 14.82 31.22 15.48 31.47C16.12 31.72 16.84 31.89 17.91 31.94C18.97 31.98 19.31 32 22.03 32C24.74 32 25.08 31.98 26.15 31.94C27.21 31.89 27.94 31.72 28.58 31.47C29.92 30.95 30.98 29.89 31.5 28.55C31.75 27.91 31.92 27.18 31.97 26.12C32.01 25.05 32.03 24.71 32.03 22C32.03 19.28 32.02 18.94 31.98 17.87ZM30.17 26.04C30.13 27.02 29.97 27.54 29.83 27.9C29.49 28.77 28.8 29.46 27.93 29.8C27.58 29.93 27.05 30.1 26.08 30.14C25.02 30.19 24.7 30.2 22.04 30.2C19.37 30.2 19.05 30.19 18 30.14C17.02 30.1 16.49 29.93 16.14 29.8C15.71 29.64 15.31 29.38 14.99 29.05C14.66 28.72 14.41 28.33 14.25 27.9C14.11 27.55 13.94 27.02 13.9 26.04C13.85 24.99 13.84 24.67 13.84 22C13.84 19.34 13.85 19.02 13.9 17.96C13.94 16.99 14.11 16.46 14.25 16.11C14.41 15.68 14.66 15.28 15 14.96C15.32 14.63 15.71 14.37 16.14 14.21C16.5 14.08 17.03 13.91 18 13.87C19.05 13.82 19.37 13.81 22.04 13.81C24.71 13.81 25.03 13.82 26.08 13.87C27.06 13.91 27.58 14.08 27.94 14.21C28.37 14.37 28.76 14.63 29.08 14.96C29.42 15.28 29.67 15.68 29.83 16.11C29.97 16.46 30.13 16.99 30.17 17.96C30.22 19.02 30.23 19.34 30.23 22C30.23 24.67 30.22 24.99 30.17 26.04Z" fill="#FFFFFF" fill-opacity="1.000000" fill-rule="nonzero"/>
		<path id="Vector" d="M22.03 16.86C19.2 16.86 16.89 19.16 16.89 22C16.89 24.83 19.2 27.13 22.03 27.13C24.87 27.13 27.17 24.83 27.17 22C27.17 19.16 24.87 16.86 22.03 16.86ZM22.03 25.33C20.19 25.33 18.7 23.84 18.7 22C18.7 20.16 20.19 18.66 22.03 18.66C23.87 18.66 25.36 20.16 25.36 22C25.36 23.84 23.87 25.33 22.03 25.33Z" fill="#FFFFFF" fill-opacity="1.000000" fill-rule="nonzero"/>
		<path id="Vector" d="M28.57 16.66C28.57 17.32 28.04 17.86 27.37 17.86C26.71 17.86 26.17 17.32 26.17 16.66C26.17 15.99 26.71 15.46 27.37 15.46C28.04 15.46 28.57 15.99 28.57 16.66Z" fill="#FFFFFF" fill-opacity="1.000000" fill-rule="nonzero"/>
	</g>
</svg>
