<svg width="44.000000" height="44.000000" viewBox="0 0 44 44" fill="none" xmlns="http://www.w3.org/2000/svg" xmlns:xlink="http://www.w3.org/1999/xlink">
	<desc>
			Created with Pixso.
	</desc>
	<defs>
		<clipPath id="clip11_3006">
			<rect id="twitter 1" width="20.000000" height="20.000000" transform="translate(12.000000 12.000000)" fill="white" fill-opacity="0"/>
		</clipPath>
	</defs>
	<rect id="Ellipse" width="44.000000" height="44.000000" fill="#FFFFFF" fill-opacity="0"/>
	<path id="Ellipse" d="M44 22C44 28.07 41.53 33.57 37.55 37.55C33.57 41.53 28.07 44 22 44C15.92 44 10.42 41.53 6.44 37.55C2.46 33.57 0 28.07 0 22C0 15.92 2.46 10.42 6.44 6.44C10.42 2.46 15.92 0 22 0C28.07 0 33.57 2.46 37.55 6.44C41.53 10.42 44 15.92 44 22Z" fill="#2196F3" fill-opacity="1.000000" fill-rule="nonzero"/>
	<rect id="twitter 1" width="20.000000" height="20.000000" transform="translate(12.000000 12.000000)" fill="#FFFFFF" fill-opacity="0"/>
	<g clip-path="url(#clip11_3006)">
		<path id="Vector" d="M32 15.79C31.25 16.12 30.46 16.34 29.63 16.44C30.48 15.93 31.13 15.14 31.44 14.18C30.64 14.65 29.77 14.98 28.84 15.17C28.08 14.37 27.01 13.87 25.84 13.87C23.57 13.87 21.74 15.71 21.74 17.97C21.74 18.3 21.77 18.61 21.84 18.91C18.43 18.74 15.41 17.11 13.39 14.62C13.03 15.23 12.83 15.93 12.83 16.69C12.83 18.11 13.56 19.37 14.65 20.1C13.99 20.09 13.34 19.89 12.8 19.59C12.8 19.61 12.8 19.62 12.8 19.64C12.8 21.63 14.22 23.29 16.08 23.67C15.75 23.76 15.38 23.8 15.01 23.8C14.74 23.8 14.48 23.79 14.23 23.73C14.76 25.36 16.27 26.55 18.06 26.59C16.67 27.68 14.89 28.34 12.98 28.34C12.64 28.34 12.32 28.32 12 28.28C13.81 29.45 15.96 30.12 18.29 30.12C25.83 30.12 29.96 23.87 29.96 18.45C29.96 18.27 29.95 18.1 29.94 17.92C30.75 17.35 31.44 16.62 32 15.79Z" fill="#FFFFFF" fill-opacity="1.000000" fill-rule="nonzero"/>
	</g>
</svg>
