<svg width="44.000000" height="44.000000" viewBox="0 0 44 44" fill="none" xmlns="http://www.w3.org/2000/svg" xmlns:xlink="http://www.w3.org/1999/xlink">
	<desc>
			Created with Pixso.
	</desc>
	<defs>
		<clipPath id="clip11_2996">
			<rect id="linkedin 1" width="20.000000" height="20.000000" transform="translate(12.000000 12.000000)" fill="white" fill-opacity="0"/>
		</clipPath>
	</defs>
	<rect id="Ellipse" width="44.000000" height="44.000000" fill="#FFFFFF" fill-opacity="0"/>
	<path id="Ellipse" d="M44 22C44 28.07 41.53 33.57 37.55 37.55C33.57 41.53 28.07 44 22 44C15.92 44 10.42 41.53 6.44 37.55C2.46 33.57 0 28.07 0 22C0 15.92 2.46 10.42 6.44 6.44C10.42 2.46 15.92 0 22 0C28.07 0 33.57 2.46 37.55 6.44C41.53 10.42 44 15.92 44 22Z" fill="#FFFFFF" fill-opacity="0.100000" fill-rule="nonzero"/>
	<rect id="linkedin 1" width="20.000000" height="20.000000" transform="translate(12.000000 12.000000)" fill="#FFFFFF" fill-opacity="0"/>
	<g clip-path="url(#clip11_2996)">
		<path id="Vector" d="M31.99 32L31.99 31.99L32 31.99L32 24.66C32 21.07 31.22 18.31 27.03 18.31C25.01 18.31 23.66 19.41 23.11 20.46L23.05 20.46L23.05 18.64L19.07 18.64L19.07 31.99L23.21 31.99L23.21 25.38C23.21 23.64 23.54 21.96 25.7 21.96C27.82 21.96 27.85 23.95 27.85 25.49L27.85 32L31.99 32Z" fill="#FFFFFF" fill-opacity="1.000000" fill-rule="nonzero"/>
		<path id="Vector" d="M12.33 18.64L16.47 18.64L16.47 32L12.33 32L12.33 18.64Z" fill="#FFFFFF" fill-opacity="1.000000" fill-rule="nonzero"/>
		<path id="Vector" d="M14.4 12C13.07 12 12 13.07 12 14.4C12 15.72 13.07 16.82 14.4 16.82C15.72 16.82 16.8 15.72 16.8 14.4C16.8 13.07 15.72 12 14.4 12L14.4 12Z" fill="#FFFFFF" fill-opacity="1.000000" fill-rule="nonzero"/>
	</g>
</svg>
