<svg xmlns="http://www.w3.org/2000/svg" width="44" height="44" fill="none"><defs><clipPath id="a"><path fill="#fff" fill-opacity="0" d="M12 12h20v20H12z"/></clipPath></defs><path fill="none" d="M0 0h44v44H0z"/><path fill="#FFF" d="M44 22c0 6.07-2.47 11.57-6.45 15.55a21.94 21.94 0 0 1-31.11 0A21.92 21.92 0 0 1 0 22c0-6.08 2.46-11.58 6.44-15.56A21.93 21.93 0 0 1 22 0c6.07 0 11.57 2.46 15.55 6.44A21.94 21.94 0 0 1 44 22Z"/><path fill="none" d="M12 12h20v20H12z"/><g clip-path="url(#a)"><path fill="#AFB1B8" d="M25.33 15.32h1.82v-3.18c-.31-.05-1.4-.14-2.66-.14-2.63 0-4.43 1.65-4.43 4.69v2.81h-2.91v3.55h2.91V32h3.56v-8.95h2.79l.44-3.55h-3.23v-2.45c0-1.03.27-1.73 1.71-1.73Z"/></g></svg>