<svg xmlns="http://www.w3.org/2000/svg" width="44" height="44" fill="none"><defs><clipPath id="a"><path fill="#fff" fill-opacity="0" d="M12 12h20v20H12z"/></clipPath></defs><path fill="none" d="M0 0h44v44H0z"/><path fill="#FFF" d="M44 22c0 6.07-2.47 11.57-6.45 15.55a21.94 21.94 0 0 1-31.11 0A21.92 21.92 0 0 1 0 22c0-6.08 2.46-11.58 6.44-15.56A21.93 21.93 0 0 1 22 0c6.07 0 11.57 2.46 15.55 6.44A21.94 21.94 0 0 1 44 22Z"/><path fill="none" d="M12 12h20v20H12z"/><g fill="#AFB1B8" clip-path="url(#a)"><path d="M31.98 17.88a7.24 7.24 0 0 0-.47-2.43 4.74 4.74 0 0 0-1.16-1.77c-.5-.51-1.1-.91-1.77-1.16a7.26 7.26 0 0 0-2.42-.46 70.01 70.01 0 0 0-4.13-.06c-2.71 0-3.05.01-4.12.05a7.35 7.35 0 0 0-2.43.47c-.67.25-1.27.64-1.77 1.16-.51.5-.9 1.1-1.15 1.77a7.23 7.23 0 0 0-.47 2.42 70.01 70.01 0 0 0-.06 4.13c0 2.71.01 3.05.06 4.12.05 1.06.22 1.79.46 2.43a5 5 0 0 0 2.93 2.92 7.3 7.3 0 0 0 2.43.47c1.06.04 1.4.05 4.12.05 2.71 0 3.05-.01 4.12-.05a7.35 7.35 0 0 0 2.43-.47 5.12 5.12 0 0 0 2.92-2.92c.25-.64.42-1.37.47-2.43.04-1.07.06-1.41.06-4.12 0-2.72-.01-3.06-.05-4.12Zm-1.81 8.16c-.04.98-.2 1.5-.34 1.86a3.35 3.35 0 0 1-1.9 1.9c-.35.13-.88.3-1.85.34a67.3 67.3 0 0 1-4.04.06c-2.67 0-2.99-.01-4.04-.06a5.6 5.6 0 0 1-1.86-.34 3.2 3.2 0 0 1-1.89-1.9 5.29 5.29 0 0 1-.35-1.86 66.87 66.87 0 0 1-.06-4.04c0-2.66.01-2.98.06-4.04.04-.97.21-1.5.35-1.85.16-.43.41-.83.75-1.15a3.1 3.1 0 0 1 1.14-.75c.36-.13.89-.3 1.86-.34 1.05-.05 1.37-.06 4.04-.06s2.99.01 4.04.06c.98.04 1.5.21 1.86.34.43.16.82.42 1.14.75.34.32.59.72.75 1.15.14.35.3.88.34 1.85.05 1.06.06 1.38.06 4.04 0 2.67-.01 2.99-.06 4.04Z"/><path d="M22.03 16.86a5.14 5.14 0 1 0 .01 10.29 5.14 5.14 0 0 0-.01-10.29Zm0 8.47a3.33 3.33 0 1 1 0-6.66 3.33 3.33 0 0 1 0 6.66ZM28.57 16.66a1.2 1.2 0 1 1-2.4 0c0-.67.54-1.2 1.2-1.2.67 0 1.2.53 1.2 1.2Z"/></g></svg>