<svg xmlns="http://www.w3.org/2000/svg" width="44" height="44" fill="none"><defs><clipPath id="a"><path fill="#fff" fill-opacity="0" d="M12 12h20v20H12z"/></clipPath></defs><path fill="none" d="M0 0h44v44H0z"/><path fill="#FFF" d="M44 22c0 6.07-2.47 11.57-6.45 15.55a21.94 21.94 0 0 1-31.11 0A21.92 21.92 0 0 1 0 22c0-6.08 2.46-11.58 6.44-15.56A21.93 21.93 0 0 1 22 0c6.07 0 11.57 2.46 15.55 6.44A21.94 21.94 0 0 1 44 22Z"/><path fill="none" d="M12 12h20v20H12z"/><g fill="#AFB1B8" clip-path="url(#a)"><path d="M31.99 32v-.01H32v-7.33c0-3.59-.78-6.35-4.97-6.35a4.34 4.34 0 0 0-3.92 2.15h-.06v-1.82h-3.98v13.35h4.14v-6.61c0-1.74.33-3.42 2.49-3.42 2.12 0 2.15 1.99 2.15 3.53V32h4.14ZM12.33 18.64h4.14v13.35h-4.14V18.64ZM14.4 12a2.4 2.4 0 0 0-2.4 2.4 2.42 2.42 0 0 0 2.4 2.42c1.32 0 2.4-1.1 2.4-2.42a2.4 2.4 0 0 0-2.4-2.4Z"/></g></svg>