<svg width="18.000000" height="18.000000" viewBox="0 0 18 18" fill="none" xmlns="http://www.w3.org/2000/svg" xmlns:xlink="http://www.w3.org/1999/xlink">
	<desc>
			Created with Pixso.
	</desc>
	<defs>
		<clipPath id="clip60_11806">
			<rect id="phone-black-18dp 1" width="18.000000" height="18.000000" fill="white" fill-opacity="0"/>
		</clipPath>
	</defs>
	<rect id="phone-black-18dp 1" width="18.000000" height="18.000000" fill="#FFFFFF" fill-opacity="0"/>
	<g clip-path="url(#clip60_11806)">
		<path id="Vector" d="M13.99 11.12L12.15 10.91C11.71 10.86 11.28 11.01 10.97 11.32L9.63 12.65C7.59 11.61 5.91 9.94 4.87 7.88L6.2 6.54C6.52 6.23 6.67 5.8 6.62 5.36L6.41 3.53C6.32 2.8 5.7 2.25 4.97 2.25L3.71 2.25C2.9 2.25 2.22 2.93 2.27 3.75C2.65 9.93 7.59 14.87 13.77 15.25C14.58 15.3 15.26 14.62 15.26 13.8L15.26 12.55C15.27 11.82 14.72 11.2 13.99 11.12Z" fill="#212121" fill-opacity="1.000000" fill-rule="nonzero"/>
	</g>
</svg>
