<svg xmlns="http://www.w3.org/2000/svg" width="44" height="44" fill="none"><defs><clipPath id="a"><path fill="#fff" fill-opacity="0" d="M12 12h20v20H12z"/></clipPath></defs><path fill="none" d="M0 0h44v44H0z"/><path fill="#FFF" d="M44 22c0 6.07-2.47 11.57-6.45 15.55a21.94 21.94 0 0 1-31.11 0A21.92 21.92 0 0 1 0 22c0-6.08 2.46-11.58 6.44-15.56A21.93 21.93 0 0 1 22 0c6.07 0 11.57 2.46 15.55 6.44A21.94 21.94 0 0 1 44 22Z"/><path fill="none" d="M12 12h20v20H12z"/><g clip-path="url(#a)"><path fill="#AFB1B8" d="M32 15.79c-.75.33-1.54.55-2.37.65a4.1 4.1 0 0 0 1.81-2.26c-.8.47-1.67.8-2.6.99a4.1 4.1 0 0 0-7 3.74 11.6 11.6 0 0 1-8.45-4.29 4.11 4.11 0 0 0 1.26 5.48 4 4 0 0 1-1.85-.51v.05a4.12 4.12 0 0 0 3.28 4.03 4.13 4.13 0 0 1-1.85.06 4.14 4.14 0 0 0 3.83 2.86A8.24 8.24 0 0 1 12 28.28a11.52 11.52 0 0 0 6.29 1.84c7.54 0 11.67-6.25 11.67-11.67l-.02-.53c.81-.57 1.5-1.3 2.06-2.13Z"/></g></svg>