<svg xmlns="http://www.w3.org/2000/svg" width="270" height="120" fill="none"><defs><clipPath id="a"><path fill="#fff" fill-opacity="0" d="M100 25h70v70h-70z"/></clipPath></defs><rect width="270" height="120" fill="#F5F4FA" rx="4"/><path fill="none" d="M100 25h70v70h-70z"/><g clip-path="url(#a)"><path fill="#212121" d="M168.46 58.47a33.48 33.48 0 1 0-43.66 31.9 1.48 1.48 0 0 0 1.16-.14c.3-.18.51-.45.62-.78l8.45-26.8a4.18 4.18 0 1 0-1.84-7.95l-11.16-11.17a1.4 1.4 0 0 0-1.98 1.97l11.17 11.18a4.1 4.1 0 0 0 1.17 5.05l-8.06 25.53a30.72 30.72 0 1 1 23.13-.76l-.88-4.1a1.4 1.4 0 0 0-2.29-.75l-8.4 7.5a1.4 1.4 0 0 0 .51 2.36l10.72 3.42a1.4 1.4 0 0 0 1.79-1.62l-.86-4.02a33.37 33.37 0 0 0 20.41-30.82Zm-33.48-1.4a1.4 1.4 0 1 1 0 2.8 1.4 1.4 0 0 1 0-2.8Zm4.6 32.52 4.77-4.26 1.32 6.21-6.1-1.95Z"/><path fill="#2196F3" d="M133.59 31.97v2.79a1.4 1.4 0 1 0 2.79 0v-2.8a1.4 1.4 0 0 0-2.8 0ZM108.48 57.08a1.4 1.4 0 1 0 0 2.79h2.79a1.4 1.4 0 0 0 0-2.8h-2.8ZM161.49 59.87a1.4 1.4 0 0 0 0-2.8h-2.8a1.4 1.4 0 0 0 0 2.8h2.8Z"/></g></svg>